# xmcd CD database file
#
# Track frame offsets:
#	150
#	12762
#	30442
#	37897
#	48685
#	57512
#	76515
#	87832
#	104637
#	117442
#	127375
#	138580
#
# Disc length: 2031 seconds
#
# Revision: 0
# Processed by: cddbd v1.4PL0 Copyright (c) Steve Scherf et al.
# Submitted via: CDex 1.51
#
DISCID=9f07ed0c
DTITLE=George Van Eps - Soliloquy
DYEAR=1969
DGENRE=Jazz
TTITLE0=Cute
TTITLE1=This Guy's In Love With You
TTITLE2=Lover
TTITLE3=Nice Work If You Can Get It
TTITLE4=Scott's Lullaby
TTITLE5=By The Time I Get To Phoenix
TTITLE6=Dancing In The Dark
TTITLE7=Lover Man
TTITLE8=All Alone
TTITLE9=The Blue Room
TTITLE10=Love Theme For Jo
TTITLE11=Where Is Love?
EXTD=YEAR: 1969
EXTT0=
EXTT1=
EXTT2=
EXTT3=
EXTT4=
EXTT5=
EXTT6=
EXTT7=
EXTT8=
EXTT9=
EXTT10=
EXTT11=
PLAYORDER=
